<svg width="32" height="33" viewBox="0 0 32 33" fill="none" xmlns="http://www.w3.org/2000/svg">
<g id="icons/Info Circle/Line">
<path id="Shape" fill-rule="evenodd" clip-rule="evenodd" d="M16.0003 27.1667C21.8914 27.1667 26.667 22.391 26.667 16.5C26.667 10.609 21.8914 5.83332 16.0003 5.83332C10.1093 5.83332 5.33366 10.609 5.33366 16.5C5.33366 22.391 10.1093 27.1667 16.0003 27.1667ZM16.0003 29.8333C23.3641 29.8333 29.3337 23.8638 29.3337 16.5C29.3337 9.13619 23.3641 3.16666 16.0003 3.16666C8.63653 3.16666 2.66699 9.13619 2.66699 16.5C2.66699 23.8638 8.63653 29.8333 16.0003 29.8333Z" fill="#EF466F"/>
<path id="Shape_2" fill-rule="evenodd" clip-rule="evenodd" d="M16.0003 9.83334C15.2639 9.83334 14.667 10.4303 14.667 11.1667C14.667 11.9031 15.2639 12.5 16.0003 12.5C16.7367 12.5 17.3337 11.9031 17.3337 11.1667C17.3337 10.4303 16.7367 9.83334 16.0003 9.83334ZM16.0003 15.1667C15.2639 15.1667 14.667 15.7636 14.667 16.5V21.8333C14.667 22.5697 15.2639 23.1667 16.0003 23.1667C16.7367 23.1667 17.3337 22.5697 17.3337 21.8333V16.5C17.3337 15.7636 16.7367 15.1667 16.0003 15.1667Z" fill="#EF466F"/>
</g>
</svg>
