<svg width="20" height="20" viewBox="0 0 20 20" fill="none" xmlns="http://www.w3.org/2000/svg">
<g id="Icons/Instagram/Line">
<path id="Vector" fill-rule="evenodd" clip-rule="evenodd" d="M13.3346 3.33335H6.66797C4.82702 3.33335 3.33464 4.82574 3.33464 6.66669V13.3334C3.33464 15.1743 4.82702 16.6667 6.66797 16.6667H13.3346C15.1756 16.6667 16.668 15.1743 16.668 13.3334V6.66669C16.668 4.82574 15.1756 3.33335 13.3346 3.33335ZM6.66797 1.66669C3.90654 1.66669 1.66797 3.90526 1.66797 6.66669V13.3334C1.66797 16.0948 3.90654 18.3334 6.66797 18.3334H13.3346C16.0961 18.3334 18.3346 16.0948 18.3346 13.3334V6.66669C18.3346 3.90526 16.0961 1.66669 13.3346 1.66669H6.66797Z" fill="#777E91"/>
<path id="Vector_2" d="M14.1654 6.66667C14.6256 6.66667 14.9987 6.29357 14.9987 5.83333C14.9987 5.3731 14.6256 5 14.1654 5C13.7051 5 13.332 5.3731 13.332 5.83333C13.332 6.29357 13.7051 6.66667 14.1654 6.66667Z" fill="#777E91"/>
<path id="Vector_3" fill-rule="evenodd" clip-rule="evenodd" d="M14.1654 9.99998C14.1654 12.3011 12.2999 14.1666 9.9987 14.1666C7.69751 14.1666 5.83203 12.3011 5.83203 9.99998C5.83203 7.6988 7.69751 5.83331 9.9987 5.83331C12.2999 5.83331 14.1654 7.6988 14.1654 9.99998ZM12.4987 9.99998C12.4987 11.3807 11.3794 12.5 9.9987 12.5C8.61795 12.5 7.4987 11.3807 7.4987 9.99998C7.4987 8.61923 8.61795 7.49998 9.9987 7.49998C11.3794 7.49998 12.4987 8.61923 12.4987 9.99998Z" fill="#777E91"/>
</g>
</svg>
