<svg width="20" height="20" viewBox="0 0 20 20" fill="none" xmlns="http://www.w3.org/2000/svg">
<g id="icons/Search/Line">
<path id="Shape" fill-rule="evenodd" clip-rule="evenodd" d="M12.4227 13.6002C11.2938 14.4778 9.87523 15.0003 8.33464 15.0003C4.65274 15.0003 1.66797 12.0156 1.66797 8.33366C1.66797 4.65176 4.65274 1.66699 8.33464 1.66699C12.0165 1.66699 15.0013 4.65176 15.0013 8.33366C15.0013 9.87425 14.4787 11.2928 13.6012 12.4217L18.0906 16.9111C18.416 17.2365 18.416 17.7641 18.0906 18.0896C17.7651 18.415 17.2375 18.415 16.912 18.0896L12.4227 13.6002ZM13.3346 8.33366C13.3346 11.0951 11.0961 13.3337 8.33464 13.3337C5.57321 13.3337 3.33464 11.0951 3.33464 8.33366C3.33464 5.57224 5.57321 3.33366 8.33464 3.33366C11.0961 3.33366 13.3346 5.57224 13.3346 8.33366Z" fill="#777E91"/>
</g>
</svg>
