<svg width="16" height="16" viewBox="0 0 16 16" fill="none" xmlns="http://www.w3.org/2000/svg">
<g id="icons/Image/Line">
<path id="Shape" fill-rule="evenodd" clip-rule="evenodd" d="M7.9987 2.66666C6.69721 2.66666 5.49747 2.774 4.5345 2.90118C3.66785 3.01564 3.01434 3.66914 2.89988 4.5358C2.7727 5.49877 2.66536 6.69851 2.66536 8C2.66536 9.30148 2.7727 10.5012 2.89988 11.4642C3.01434 12.3308 3.66785 12.9844 4.5345 13.0988C5.49747 13.226 6.69721 13.3333 7.9987 13.3333C9.30019 13.3333 10.4999 13.226 11.4629 13.0988C12.3295 12.9844 12.9831 12.3308 13.0975 11.4642C13.2247 10.5012 13.332 9.30148 13.332 8C13.332 6.69851 13.2247 5.49877 13.0975 4.5358C12.9831 3.66914 12.3295 3.01564 11.4629 2.90118C10.4999 2.774 9.30019 2.66666 7.9987 2.66666ZM4.35992 1.57932C2.89539 1.77274 1.77145 2.89669 1.57803 4.36122C1.44505 5.36805 1.33203 6.62751 1.33203 8C1.33203 9.37248 1.44505 10.6319 1.57803 11.6388C1.77145 13.1033 2.89539 14.2272 4.35992 14.4207C5.36675 14.5536 6.62621 14.6667 7.9987 14.6667C9.37118 14.6667 10.6306 14.5536 11.6375 14.4207C13.102 14.2272 14.2259 13.1033 14.4194 11.6388C14.5523 10.6319 14.6654 9.37248 14.6654 8C14.6654 6.62751 14.5523 5.36805 14.4194 4.36122C14.2259 2.89669 13.102 1.77274 11.6375 1.57932C10.6306 1.44635 9.37118 1.33333 7.9987 1.33333C6.62621 1.33333 5.36675 1.44635 4.35992 1.57932Z" fill="#FCFCFD"/>
<g id="Shape_2">
<path d="M6.00041 7.33334C6.73679 7.33334 7.33374 6.73638 7.33374 6.00001C7.33374 5.26363 6.73679 4.66667 6.00041 4.66667C5.26403 4.66667 4.66707 5.26363 4.66707 6.00001C4.66707 6.73638 5.26403 7.33334 6.00041 7.33334Z" fill="#FCFCFD"/>
<path d="M12.0813 8.47153L13.2775 9.66775C13.2362 10.2919 13.176 10.871 13.1095 11.3854L11.1385 9.41434C10.8781 9.15399 10.456 9.15399 10.1957 9.41434L8.74795 10.8621C7.9669 11.6431 6.70057 11.6431 5.91952 10.8621L5.80514 10.7477C5.54479 10.4873 5.12268 10.4873 4.86233 10.7477L3.25629 12.3537C3.07024 12.1015 2.94576 11.7987 2.90158 11.4642C2.87749 11.2818 2.8541 11.0909 2.83203 10.8924L3.91953 9.80487C4.70057 9.02382 5.9669 9.02382 6.74795 9.80487L6.86233 9.91925C7.12268 10.1796 7.54479 10.1796 7.80514 9.91925L9.25286 8.47153C10.0339 7.69048 11.3002 7.69049 12.0813 8.47153Z" fill="#FCFCFD"/>
</g>
</g>
</svg>
