<svg width="20" height="20" viewBox="0 0 20 20" fill="none" xmlns="http://www.w3.org/2000/svg">
<g id="Icons/Facebook/Line">
<path id="Vector" fill-rule="evenodd" clip-rule="evenodd" d="M10.0013 16.6667C13.6832 16.6667 16.668 13.6819 16.668 10C16.668 6.31812 13.6832 3.33335 10.0013 3.33335C6.3194 3.33335 3.33464 6.31812 3.33464 10C3.33464 13.6819 6.3194 16.6667 10.0013 16.6667ZM10.0013 18.3334C14.6036 18.3334 18.3346 14.6024 18.3346 10C18.3346 5.39765 14.6036 1.66669 10.0013 1.66669C5.39893 1.66669 1.66797 5.39765 1.66797 10C1.66797 14.6024 5.39893 18.3334 10.0013 18.3334Z" fill="#777E91"/>
<path id="Vector_2" d="M10.0013 8.33331C10.0013 7.87308 10.3744 7.49998 10.8346 7.49998H11.668C12.1282 7.49998 12.5013 7.12689 12.5013 6.66665C12.5013 6.20641 12.1282 5.83331 11.668 5.83331H10.8346C9.45389 5.83331 8.33464 6.9526 8.33464 8.33331V9.99998H7.5013C7.04107 9.99998 6.66797 10.3731 6.66797 10.8333C6.66797 11.2936 7.04106 11.6666 7.5013 11.6666H8.33464V16.6666C8.33464 17.1269 8.70772 17.5 9.16797 17.5C9.62822 17.5 10.0013 17.1269 10.0013 16.6666V11.6666H11.668C12.1282 11.6666 12.5013 11.2936 12.5013 10.8333C12.5013 10.3731 12.1282 9.99998 11.668 9.99998H10.0013V8.33331Z" fill="#777E91"/>
</g>
</svg>
