<svg width="20" height="19" viewBox="0 0 20 19" fill="none" xmlns="http://www.w3.org/2000/svg">
<path d="M1.15999 18.9992C1.0991 18.999 1.04042 18.975 0.995203 18.9319C0.949988 18.8888 0.921413 18.8296 0.914955 18.7657V18.7649L0.000749349 8.97354L0 8.949C0 8.80492 0.110154 8.68854 0.246536 8.68854H6.41593V19L1.15999 18.9992ZM3.6778 16.4144V16.4152C3.6778 16.6189 3.73498 16.818 3.8421 16.9874C3.94923 17.1568 4.10149 17.2888 4.27963 17.3668C4.45777 17.4447 4.65379 17.4651 4.8429 17.4254C5.03201 17.3856 5.20572 17.2875 5.34207 17.1435C5.47841 16.9995 5.57126 16.8159 5.60888 16.6161C5.64649 16.4164 5.62719 16.2093 5.5534 16.0211C5.47961 15.8329 5.35466 15.672 5.19433 15.5588C5.03401 15.4457 4.84552 15.3853 4.65271 15.3853H4.65121C4.11243 15.3853 3.67631 15.846 3.67556 16.4152L3.6778 16.4144ZM4.03749 10.0811C4.03749 10.2244 4.14765 10.3407 4.28403 10.3407H4.85653C4.92172 10.3407 4.98423 10.3134 5.03033 10.2647C5.07642 10.216 5.10232 10.15 5.10232 10.0811C5.10232 10.0122 5.07642 9.94617 5.03033 9.89747C4.98423 9.84877 4.92172 9.82142 4.85653 9.82142H4.27953C4.21415 9.82142 4.15144 9.84886 4.1052 9.8977C4.05897 9.94655 4.033 10.0128 4.033 10.0819V10.0843L4.03749 10.0811ZM1.33234 10.0811C1.33234 10.2244 1.4425 10.3407 1.57813 10.3407H3.45525C3.52043 10.3407 3.58295 10.3134 3.62904 10.2647C3.67514 10.216 3.70103 10.15 3.70103 10.0811C3.70103 10.0122 3.67514 9.94617 3.62904 9.89747C3.58295 9.84877 3.52043 9.82142 3.45525 9.82142H1.57363C1.50845 9.82142 1.44593 9.84877 1.39984 9.89747C1.35374 9.94617 1.32785 10.0122 1.32785 10.0811V10.0835L1.33234 10.0811ZM8.67596 17.5133C8.54389 17.4661 8.41915 17.3986 8.30578 17.313L8.31028 17.3161L8.23534 17.2663C8.06079 17.1506 7.88841 17.0313 7.71829 16.9084L7.64261 16.8522C7.54369 16.777 7.49724 16.7438 7.44628 16.7469C7.26644 16.7509 7.08659 16.7525 6.90675 16.7548V9.50712L6.89701 8.89754C7.23496 8.67033 7.54669 8.45421 7.64036 8.37187C7.76775 8.10112 7.89364 7.87471 8.03302 7.65779L8.02028 7.67917C8.08397 7.57387 8.14767 7.46938 8.20612 7.36567L9.498 5.07458C9.55794 4.96692 9.62314 4.85925 9.68833 4.75158C9.79699 4.58058 9.91239 4.37633 10.018 4.16575L10.036 4.12696C10.0952 3.9991 10.1159 3.85515 10.0952 3.7145L10.096 3.71846L10.0915 1.24846C10.1387 0.889042 10.3305 0.585042 10.601 0.399792L10.6055 0.396625C10.8467 0.167139 11.1527 0.0280193 11.4763 0.000791667H11.4815L11.5287 0C11.7843 0 12.0255 0.064125 12.2399 0.177333L12.2309 0.172583C12.374 0.245417 12.4961 0.323 12.6108 0.410083L12.6033 0.404542L12.6827 0.459958C12.8633 0.5605 12.9982 0.729917 13.0582 0.934958L13.0597 0.9405C13.1998 1.4915 13.3279 1.99263 13.4471 2.49533L13.4965 2.70038C13.5722 2.96954 13.6374 3.29492 13.6794 3.62821L13.6831 3.66146C13.555 4.90754 13.3084 6.04437 12.9517 7.12737L12.9832 7.01813L18.748 7.00942H18.7689C18.9436 7.00943 19.1162 7.0487 19.2754 7.12462C19.4346 7.20053 19.5766 7.31135 19.6922 7.44972C19.8077 7.58809 19.894 7.75084 19.9454 7.92717C19.9968 8.10349 20.0122 8.28936 19.9904 8.47242L19.9911 8.46608C20.0073 8.74266 19.9538 9.01882 19.8361 9.26648C19.7184 9.51414 19.5408 9.72445 19.3212 9.87604L19.3152 9.88C19.5255 10.2048 19.6239 10.5961 19.594 10.9883V10.9828C19.6202 11.2936 19.5517 11.6052 19.3984 11.872C19.2451 12.1388 19.0151 12.3467 18.742 12.4656L18.733 12.4688C18.9006 12.7845 18.9784 13.1446 18.957 13.5058V13.5011C18.9733 13.7717 18.9203 14.042 18.8034 14.2834C18.6866 14.5248 18.5103 14.7285 18.2931 14.873L18.2871 14.877C18.4402 15.2391 18.4981 15.6381 18.455 16.032L18.4557 16.0218V16.1706C18.445 16.3656 18.3971 16.5563 18.315 16.7313C18.2328 16.9062 18.1181 17.0619 17.9777 17.189C17.8373 17.316 17.6741 17.4119 17.4978 17.4707C17.3215 17.5295 17.1358 17.5502 16.9518 17.5315L16.957 17.5322H13.6381L13.6269 17.533L13.6149 17.5322H13.6157H9.18702C9.1488 17.5322 9.10908 17.5323 9.06712 17.5386C9.01617 17.5418 8.96221 17.5465 8.90676 17.5465H8.89552C8.81983 17.5466 8.74447 17.5359 8.67146 17.5148L8.67746 17.5164L8.67596 17.5133ZM4.16863 16.4152C4.16868 16.3486 4.18114 16.2827 4.20531 16.2212C4.22947 16.1597 4.26487 16.1038 4.30947 16.0568C4.35407 16.0097 4.40701 15.9724 4.46526 15.947C4.52351 15.9216 4.58593 15.9085 4.64896 15.9085C4.71199 15.9086 4.77439 15.9218 4.8326 15.9473C4.89082 15.9728 4.9437 16.0102 4.98823 16.0573C5.03277 16.1045 5.06808 16.1604 5.09215 16.2219C5.11623 16.2835 5.12859 16.3494 5.12854 16.416C5.12844 16.5505 5.07778 16.6794 4.9877 16.7744C4.89762 16.8694 4.7755 16.9228 4.64821 16.9227C4.52092 16.9226 4.39888 16.869 4.30894 16.7739C4.219 16.6787 4.16853 16.5497 4.16863 16.4152Z" fill="black"/>
</svg>
