<svg width="16" height="16" viewBox="0 0 16 16" fill="none" xmlns="http://www.w3.org/2000/svg">
<g id="icons/Coins/Filled">
<path id="Shape" d="M11.9881 9.67099C12.0031 9.92049 12.2637 10.0888 12.4754 9.95595C13.7908 9.13066 14.6654 7.66747 14.6654 6.00001C14.6654 3.42268 12.576 1.33334 9.99869 1.33334C8.33123 1.33334 6.86803 2.20788 6.04275 3.5233C5.9099 3.73504 6.07821 3.99555 6.32772 4.01055C9.3116 4.18994 11.8087 6.68967 11.9881 9.67099Z" fill="#3772FF"/>
<path id="Shape_2" d="M10.6654 10C10.6654 12.5773 8.57603 14.6667 5.9987 14.6667C3.42137 14.6667 1.33203 12.5773 1.33203 10C1.33203 7.42268 3.42137 5.33334 5.9987 5.33334C8.57603 5.33334 10.6654 7.42268 10.6654 10Z" fill="#3772FF"/>
</g>
</svg>
