<svg width="16" height="16" viewBox="0 0 16 16" fill="none" xmlns="http://www.w3.org/2000/svg">
<g id="icons/Globe/Line">
<path id="Shape" fill-rule="evenodd" clip-rule="evenodd" d="M7.9987 13.3333C10.9442 13.3333 13.332 10.9455 13.332 7.99998C13.332 5.05446 10.9442 2.66665 7.9987 2.66665C5.05318 2.66665 2.66536 5.05446 2.66536 7.99998C2.66536 10.9455 5.05318 13.3333 7.9987 13.3333ZM7.9987 14.6666C11.6806 14.6666 14.6654 11.6819 14.6654 7.99998C14.6654 4.31808 11.6806 1.33331 7.9987 1.33331C4.3168 1.33331 1.33203 4.31808 1.33203 7.99998C1.33203 11.6819 4.3168 14.6666 7.9987 14.6666Z" fill="#777E91"/>
<path id="Shape_2" fill-rule="evenodd" clip-rule="evenodd" d="M9.16575 12.1177C9.65822 11.1328 10.0013 9.67882 10.0013 7.99998C10.0013 6.32114 9.65822 4.86716 9.16575 3.88222C8.63341 2.81753 8.14467 2.66665 8.0013 2.66665C7.85793 2.66665 7.36919 2.81753 6.83685 3.88222C6.34438 4.86716 6.0013 6.32114 6.0013 7.99998C6.0013 9.67882 6.34438 11.1328 6.83685 12.1177C7.36919 13.1824 7.85793 13.3333 8.0013 13.3333C8.14467 13.3333 8.63341 13.1824 9.16575 12.1177ZM8.0013 14.6666C9.84225 14.6666 11.3346 11.6819 11.3346 7.99998C11.3346 4.31808 9.84225 1.33331 8.0013 1.33331C6.16035 1.33331 4.66797 4.31808 4.66797 7.99998C4.66797 11.6819 6.16035 14.6666 8.0013 14.6666Z" fill="#777E91"/>
<path id="Shape_3" fill-rule="evenodd" clip-rule="evenodd" d="M14.6324 8.66665C14.6542 8.44738 14.6654 8.22498 14.6654 7.99998C14.6654 7.77498 14.6542 7.55258 14.6324 7.33331H1.36495C1.34318 7.55258 1.33203 7.77498 1.33203 7.99998C1.33203 8.22498 1.34318 8.44738 1.36495 8.66665H14.6324Z" fill="#777E91"/>
</g>
</svg>
