<svg width="21" height="20" viewBox="0 0 21 20" fill="none" xmlns="http://www.w3.org/2000/svg">
<g id="more-fill 1" clip-path="url(#clip0_28779_28227)">
<g id="Group">
<path id="Vector" d="M4.66667 8.33331C3.75 8.33331 3 9.08331 3 9.99998C3 10.9166 3.75 11.6666 4.66667 11.6666C5.58333 11.6666 6.33333 10.9166 6.33333 9.99998C6.33333 9.08331 5.58333 8.33331 4.66667 8.33331ZM16.3333 8.33331C15.4167 8.33331 14.6667 9.08331 14.6667 9.99998C14.6667 10.9166 15.4167 11.6666 16.3333 11.6666C17.25 11.6666 18 10.9166 18 9.99998C18 9.08331 17.25 8.33331 16.3333 8.33331ZM10.5 8.33331C9.58333 8.33331 8.83333 9.08331 8.83333 9.99998C8.83333 10.9166 9.58333 11.6666 10.5 11.6666C11.4167 11.6666 12.1667 10.9166 12.1667 9.99998C12.1667 9.08331 11.4167 8.33331 10.5 8.33331Z" fill="#777E91"/>
</g>
</g>
<defs>
<clipPath id="clip0_28779_28227">
<rect width="20" height="20" fill="white" transform="translate(0.5)"/>
</clipPath>
</defs>
</svg>
