<svg width="10" height="15" viewBox="0 0 10 15" fill="none" xmlns="http://www.w3.org/2000/svg">
<path d="M1.11557e-07 1.87496V14.5309C-5.28282e-05 14.6123 0.0187371 14.6923 0.0545205 14.7631C0.0903039 14.8338 0.141847 14.8929 0.204076 14.9344C0.266306 14.9759 0.337076 14.9985 0.409421 14.9999C0.481766 15.0013 0.553191 14.9815 0.616667 14.9425L5 12.2519L9.38333 14.9425C9.44681 14.9815 9.51823 15.0013 9.59058 14.9999C9.66292 14.9985 9.73369 14.9759 9.79592 14.9344C9.85815 14.8929 9.9097 14.8338 9.94548 14.7631C9.98126 14.6923 10.0001 14.6123 10 14.5309V1.87496C10 1.37769 9.8244 0.900785 9.51184 0.549162C9.19928 0.19754 8.77536 0 8.33333 0L1.66667 0C1.22464 0 0.800716 0.19754 0.488155 0.549162C0.175595 0.900785 1.11557e-07 1.37769 1.11557e-07 1.87496Z" fill="black"/>
</svg>
